<?xml version="1.0" encoding="UTF-8"?>
<!DOCTYPE svg PUBLIC "-//W3C//DTD SVG 1.1//EN" "http://www.w3.org/Graphics/SVG/1.1/DTD/svg11.dtd">
<!-- Creator: CorelDRAW -->
<svg xmlns="http://www.w3.org/2000/svg" xml:space="preserve" width="8in" height="8in" style="shape-rendering:geometricPrecision; text-rendering:geometricPrecision; image-rendering:optimizeQuality; fill-rule:evenodd; clip-rule:evenodd"
viewBox="0 0 8 8"
 xmlns:xlink="http://www.w3.org/1999/xlink">
 <defs>
  <style type="text/css">
   <![CDATA[
    .fil1 {fill:black}
    .fil0 {fill:black;fill-rule:nonzero}
   ]]>
  </style>
 </defs>
 <g id="Layer_x0020_1">
  <metadata id="CorelCorpID_0Corel-Layer"/>
  <g id="_198659320">
   <path id="_198629488" class="fil0" d="M2.2002 1.96028l3.62223 0 0.033126 0 0.023437 0.023437 0.136606 0.136606 0.023437 0.023437 0 0.033126 0 3.62223 0 0.033126 -0.023437 0.023437 -0.136606 0.136606 -0.023437 0.023437 -0.033126 0 -3.62223 0 -0.033126 0 -0.023437 -0.023437 -0.136606 -0.136606 -0.023437 -0.023437 0 -0.033126 0 -3.62223 0 -0.033126 0.023437 -0.023437 0.136606 -0.136606 0.023437 -0.023437 0.033126 0zm3.58911 0.16l-3.55598 0 -0.0897323 0.0897323 0 3.55598 0.0897323 0.0897323 3.55598 0 0.0897323 -0.0897323 0 -3.55598 -0.0897323 -0.0897323z"/>
   <path id="_198629128" class="fil0" d="M2.54386 2.27379c0.0736575,0 0.140354,0.0298661 0.188626,0.0781378 0.0482756,0.0482756 0.0781417,0.114972 0.0781417,0.18863 0,0.0736575 -0.0298661,0.140354 -0.0781417,0.188626 -0.0482717,0.0482756 -0.114969,0.0781417 -0.188626,0.0781417 -0.0736575,0 -0.140354,-0.0298661 -0.18863,-0.0781417 -0.0482717,-0.0482717 -0.0781378,-0.114969 -0.0781378,-0.188626 0,-0.0736535 0.0298661,-0.140354 0.0781378,-0.18863 0.0482756,-0.0482717 0.114976,-0.0781378 0.18863,-0.0781378zm0.0755 0.191264c-0.019311,-0.019311 -0.0460118,-0.0312638 -0.0755,-0.0312638 -0.0294921,0 -0.056189,0.0119528 -0.0755039,0.0312638 -0.019311,0.019315 -0.0312638,0.0460118 -0.0312638,0.0755039 0,0.0294882 0.0119528,0.056189 0.0312638,0.0755 0.019315,0.019315 0.0460157,0.0312677 0.0755039,0.0312677 0.0294882,0 0.056185,-0.0119528 0.0755,-0.0312677 0.019315,-0.019315 0.0312677,-0.0460118 0.0312677,-0.0755 0,-0.0294882 -0.0119528,-0.056189 -0.0312677,-0.0755039z"/>
   <path id="_198629104" class="fil0" d="M2.81732 1.52c0,-0.0441811 -0.0358189,-0.08 -0.08,-0.08 -0.0441811,0 -0.08,0.0358189 -0.08,0.08l0 0.520283c0,0.0441811 0.0358189,0.08 0.08,0.08 0.0441811,0 0.08,-0.0358189 0.08,-0.08l0 -0.520283z"/>
   <path id="_198629536" class="fil0" d="M2.81732 5.95972c0,-0.0441811 -0.0358189,-0.08 -0.08,-0.08 -0.0441811,0 -0.08,0.0358189 -0.08,0.08l0 0.52028c0,0.0441811 0.0358189,0.08 0.08,0.08 0.0441811,0 0.08,-0.0358189 0.08,-0.08l0 -0.52028z"/>
   <path id="_198629272" class="fil0" d="M3.42433 1.52c0,-0.0441811 -0.0358189,-0.08 -0.08,-0.08 -0.0441811,0 -0.08,0.0358189 -0.08,0.08l0 0.520283c0,0.0441811 0.0358189,0.08 0.08,0.08 0.0441811,0 0.08,-0.0358189 0.08,-0.08l0 -0.520283z"/>
   <path id="_198628840" class="fil0" d="M3.42433 5.95972c0,-0.0441811 -0.0358189,-0.08 -0.08,-0.08 -0.0441811,0 -0.08,0.0358189 -0.08,0.08l0 0.52028c0,0.0441811 0.0358189,0.08 0.08,0.08 0.0441811,0 0.08,-0.0358189 0.08,-0.08l0 -0.52028z"/>
   <path id="_198628792" class="fil0" d="M4.03133 1.52c0,-0.0441811 -0.0358189,-0.08 -0.08,-0.08 -0.0441811,0 -0.08,0.0358189 -0.08,0.08l0 0.520283c0,0.0441811 0.0358189,0.08 0.08,0.08 0.0441811,0 0.08,-0.0358189 0.08,-0.08l0 -0.520283z"/>
   <path id="_198628960" class="fil0" d="M4.03133 5.95972c0,-0.0441811 -0.0358189,-0.08 -0.08,-0.08 -0.0441811,0 -0.08,0.0358189 -0.08,0.08l0 0.52028c0,0.0441811 0.0358189,0.08 0.08,0.08 0.0441811,0 0.08,-0.0358189 0.08,-0.08l0 -0.52028z"/>
   <path id="_198628888" class="fil0" d="M4.63833 1.52c0,-0.0441811 -0.0358189,-0.08 -0.08,-0.08 -0.0441811,0 -0.08,0.0358189 -0.08,0.08l0 0.520283c0,0.0441811 0.0358189,0.08 0.08,0.08 0.0441811,0 0.08,-0.0358189 0.08,-0.08l0 -0.520283z"/>
   <path id="_198628576" class="fil0" d="M4.63833 5.95972c0,-0.0441811 -0.0358189,-0.08 -0.08,-0.08 -0.0441811,0 -0.08,0.0358189 -0.08,0.08l0 0.52028c0,0.0441811 0.0358189,0.08 0.08,0.08 0.0441811,0 0.08,-0.0358189 0.08,-0.08l0 -0.52028z"/>
   <path id="_198628552" class="fil0" d="M5.24533 1.52c0,-0.0441811 -0.0358189,-0.08 -0.08,-0.08 -0.0441811,0 -0.08,0.0358189 -0.08,0.08l0 0.520283c0,0.0441811 0.0358189,0.08 0.08,0.08 0.0441811,0 0.08,-0.0358189 0.08,-0.08l0 -0.520283z"/>
   <path id="_198628624" class="fil0" d="M5.24533 5.95972c0,-0.0441811 -0.0358189,-0.08 -0.08,-0.08 -0.0441811,0 -0.08,0.0358189 -0.08,0.08l0 0.52028c0,0.0441811 0.0358189,0.08 0.08,0.08 0.0441811,0 0.08,-0.0358189 0.08,-0.08l0 -0.52028z"/>
   <path id="_198628480" class="fil0" d="M2.02694 2.85066c0.0441811,0 0.08,-0.0358189 0.08,-0.08 0,-0.0441811 -0.0358189,-0.08 -0.08,-0.08l-0.52028 0c-0.0441811,0 -0.08,0.0358189 -0.08,0.08 0,0.0441811 0.0358189,0.08 0.08,0.08l0.52028 0z"/>
   <path id="_198628360" class="fil0" d="M2.02694 3.45766c0.0441811,0 0.08,-0.0358189 0.08,-0.08 0,-0.0441811 -0.0358189,-0.08 -0.08,-0.08l-0.52028 0c-0.0441811,0 -0.08,0.0358189 -0.08,0.08 0,0.0441811 0.0358189,0.08 0.08,0.08l0.52028 0z"/>
   <path id="_198627880" class="fil0" d="M2.02694 4.06467c0.0441811,0 0.08,-0.0358189 0.08,-0.08 0,-0.0441811 -0.0358189,-0.08 -0.08,-0.08l-0.52028 0c-0.0441811,0 -0.08,0.0358189 -0.08,0.08 0,0.0441811 0.0358189,0.08 0.08,0.08l0.52028 0z"/>
   <path id="_198627856" class="fil0" d="M2.02694 4.67167c0.0441811,0 0.08,-0.0358189 0.08,-0.08 0,-0.0441811 -0.0358189,-0.08 -0.08,-0.08l-0.52028 0c-0.0441811,0 -0.08,0.0358189 -0.08,0.08 0,0.0441811 0.0358189,0.08 0.08,0.08l0.52028 0z"/>
   <path id="_198627688" class="fil0" d="M2.02694 5.27867c0.0441811,0 0.08,-0.0358189 0.08,-0.08 0,-0.0441811 -0.0358189,-0.08 -0.08,-0.08l-0.52028 0c-0.0441811,0 -0.08,0.0358189 -0.08,0.08 0,0.0441811 0.0358189,0.08 0.08,0.08l0.52028 0z"/>
   <path id="_198628288" class="fil0" d="M6.49334 2.85066c0.0441811,0 0.08,-0.0358189 0.08,-0.08 0,-0.0441811 -0.0358189,-0.08 -0.08,-0.08l-0.52028 0c-0.0441811,0 -0.08,0.0358189 -0.08,0.08 0,0.0441811 0.0358189,0.08 0.08,0.08l0.52028 0z"/>
   <path id="_198628072" class="fil0" d="M6.49334 3.45766c0.0441811,0 0.08,-0.0358189 0.08,-0.08 0,-0.0441811 -0.0358189,-0.08 -0.08,-0.08l-0.52028 0c-0.0441811,0 -0.08,0.0358189 -0.08,0.08 0,0.0441811 0.0358189,0.08 0.08,0.08l0.52028 0z"/>
   <path id="_198627784" class="fil0" d="M6.49334 4.06467c0.0441811,0 0.08,-0.0358189 0.08,-0.08 0,-0.0441811 -0.0358189,-0.08 -0.08,-0.08l-0.52028 0c-0.0441811,0 -0.08,0.0358189 -0.08,0.08 0,0.0441811 0.0358189,0.08 0.08,0.08l0.52028 0z"/>
   <path id="_198659200" class="fil0" d="M6.49334 4.67167c0.0441811,0 0.08,-0.0358189 0.08,-0.08 0,-0.0441811 -0.0358189,-0.08 -0.08,-0.08l-0.52028 0c-0.0441811,0 -0.08,0.0358189 -0.08,0.08 0,0.0441811 0.0358189,0.08 0.08,0.08l0.52028 0z"/>
   <path id="_198659704" class="fil0" d="M6.49334 5.27867c0.0441811,0 0.08,-0.0358189 0.08,-0.08 0,-0.0441811 -0.0358189,-0.08 -0.08,-0.08l-0.52028 0c-0.0441811,0 -0.08,0.0358189 -0.08,0.08 0,0.0441811 0.0358189,0.08 0.08,0.08l0.52028 0z"/>
  </g>
  <path class="fil1" d="M4 0c2.20914,0 4,1.79086 4,4 0,2.20914 -1.79086,4 -4,4 -2.20914,0 -4,-1.79086 -4,-4 0,-2.20914 1.79086,-4 4,-4zm0 0.319996c2.03241,0 3.68,1.64759 3.68,3.68 0,2.03241 -1.64759,3.68 -3.68,3.68 -2.03241,0 -3.68,-1.64759 -3.68,-3.68 0,-2.03241 1.64759,-3.68 3.68,-3.68z"/>
 </g>
</svg>
