<?xml version="1.0" encoding="UTF-8"?>
<!DOCTYPE svg PUBLIC "-//W3C//DTD SVG 1.1//EN" "http://www.w3.org/Graphics/SVG/1.1/DTD/svg11.dtd">
<!-- Creator: CorelDRAW X5 -->
<svg xmlns="http://www.w3.org/2000/svg" xml:space="preserve" width="6.72in" height="6.72in" style="shape-rendering:geometricPrecision; text-rendering:geometricPrecision; image-rendering:optimizeQuality; fill-rule:evenodd; clip-rule:evenodd"
viewBox="0 0 6720 6720"
 xmlns:xlink="http://www.w3.org/1999/xlink">
 <defs>
  <style type="text/css">
   <![CDATA[
    .fil1 {fill:none}
    .fil0 {fill:black;fill-rule:nonzero}
   ]]>
  </style>
 </defs>
 <g id="Layer_x0020_1">
  <metadata id="CorelCorpID_0Corel-Layer"/>
  <g id="_378501112">
   <path class="fil0" d="M880 4127l4960 0c44,0 80,36 80,80l0 1380c0,44 -36,80 -80,80l-4960 0c-44,0 -80,-36 -80,-80l0 -1380c0,-44 36,-80 80,-80zm4880 160l-4800 0 0 1220 4800 0 0 -1220z"/>
   <path class="fil0" d="M1584 4817c-44,0 -80,36 -80,80 0,44 36,80 80,80l720 0c44,0 80,-36 80,-80 0,-44 -36,-80 -80,-80l-720 0z"/>
   <path class="fil0" d="M3000 4817c-44,0 -80,36 -80,80 0,44 36,80 80,80l720 0c44,0 80,-36 80,-80 0,-44 -36,-80 -80,-80l-720 0z"/>
   <path class="fil0" d="M4416 4817c-44,0 -80,36 -80,80 0,44 36,80 80,80l720 0c44,0 80,-36 80,-80 0,-44 -36,-80 -80,-80l-720 0z"/>
   <path class="fil0" d="M3280 4092c0,44 36,80 80,80 44,0 80,-36 80,-80l0 -755c0,-44 -36,-80 -80,-80 -44,0 -80,36 -80,80l0 755z"/>
   <path class="fil0" d="M1975 1767c-26,36 -17,86 19,111 36,26 86,17 111,-19 142,-199 331,-363 550,-476 211,-109 450,-170 704,-170 254,0 494,61 704,170 219,113 408,277 550,476 26,36 75,44 111,19 36,-26 44,-75 19,-111 -157,-220 -365,-401 -607,-526 -233,-120 -498,-188 -778,-188 -280,0 -544,68 -778,188 -242,125 -450,306 -607,526z"/>
   <path class="fil0" d="M2353 2412c-26,36 -17,86 19,111 36,26 86,17 111,-19 99,-139 231,-254 384,-333 147,-76 314,-119 492,-119 178,0 345,43 492,119 153,79 285,193 384,333 26,36 75,44 111,19 36,-26 44,-75 19,-111 -114,-160 -265,-291 -441,-382 -170,-87 -362,-137 -565,-137 -203,0 -395,49 -565,137 -176,91 -327,222 -441,382z"/>
   <path class="fil0" d="M2787 2981c-26,36 -17,86 19,111 36,26 86,17 111,-19 54,-75 125,-137 208,-180 79,-41 170,-64 266,-64 96,0 187,23 266,64 83,43 154,105 208,180 26,36 75,44 111,19 36,-26 44,-75 19,-111 -69,-96 -159,-175 -265,-229 -102,-53 -217,-82 -339,-82 -122,0 -237,30 -339,82 -105,54 -196,133 -265,229z"/>
  </g>
 </g>
 <rect class="fil1" width="6720" height="6720"/>
</svg>
